<svg width="200" height="201" viewBox="0 0 200 201" fill="none" xmlns="http://www.w3.org/2000/svg">
<path d="M134.499 17.8029C134.099 20.3029 133.899 22.8029 133.899 25.3029C133.899 47.8028 152.099 65.9927 174.499 65.9927C176.999 65.9927 179.399 65.7027 181.899 65.3027V145.992C181.899 179.902 161.899 200.002 127.899 200.002H54.0097C19.9999 200.002 0 179.902 0 145.992V72.0027C0 38.0028 19.9999 17.8029 54.0097 17.8029H134.499ZM136.509 78.6026C133.799 78.3026 131.109 79.5026 129.499 81.7026L105.309 113.002L77.5996 91.2026C75.8996 89.9026 73.8996 89.3926 71.8996 89.6026C69.9097 89.9026 68.1097 90.9926 66.8997 92.5926L37.3098 131.102L36.6998 132.002C34.9998 135.192 35.7998 139.292 38.7998 141.502C40.1998 142.402 41.6998 143.002 43.3998 143.002C45.7098 143.102 47.8998 141.892 49.2998 140.002L74.3996 107.692L102.899 129.102L103.799 129.692C106.999 131.392 110.999 130.602 113.299 127.592L142.199 90.3026L141.799 90.5026C143.399 88.3026 143.699 85.5026 142.599 83.0026C141.509 80.5026 139.099 78.8026 136.509 78.6026ZM175.9 0C189.2 0 200 10.7999 200 24.0999C200 37.3998 189.2 48.1998 175.9 48.1998C162.6 48.1998 151.8 37.3998 151.8 24.0999C151.8 10.7999 162.6 0 175.9 0Z" fill="#FCFCFC"/>
</svg>
