<svg width="56" height="118" viewBox="0 0 56 118" fill="none" xmlns="http://www.w3.org/2000/svg">
<g filter="url(#filter0_d)">
<path d="M9 21C9 14.3726 14.3726 9 21 9H46.013V109H21C14.3726 109 9 103.627 9 97V21Z" fill="#5352ED"/>
</g>
<path d="M26.9179 94.334C25.9219 94.334 25.0399 94.13 24.2719 93.722C23.5039 93.302 22.9099 92.738 22.4899 92.03C22.0579 91.31 21.8419 90.518 21.8419 89.654C21.8419 88.874 21.9979 88.196 22.3099 87.62C22.6099 87.032 22.9879 86.564 23.4439 86.216L22.0039 86.216L22.0039 84.146L31.9219 84.146L31.9219 86.216L30.4459 86.216C30.9139 86.564 31.3039 87.038 31.6159 87.638C31.9279 88.238 32.0839 88.922 32.0839 89.69C32.0839 90.542 31.8679 91.322 31.4359 92.03C30.9919 92.738 30.3799 93.302 29.5999 93.722C28.8079 94.13 27.9139 94.334 26.9179 94.334ZM26.9539 86.216C26.2699 86.216 25.6759 86.36 25.1719 86.648C24.6679 86.924 24.2839 87.29 24.0199 87.746C23.7559 88.202 23.6239 88.694 23.6239 89.222C23.6239 89.75 23.7559 90.242 24.0199 90.698C24.2719 91.154 24.6499 91.526 25.1539 91.814C25.6459 92.09 26.2339 92.228 26.9179 92.228C27.6019 92.228 28.2019 92.09 28.7179 91.814C29.2339 91.526 29.6299 91.154 29.9059 90.698C30.1699 90.23 30.3019 89.738 30.3019 89.222C30.3019 88.694 30.1699 88.202 29.9059 87.746C29.6419 87.29 29.2579 86.924 28.7539 86.648C28.2379 86.36 27.6379 86.216 26.9539 86.216ZM21.8419 75.3668C21.8419 74.5868 22.0039 73.8908 22.3279 73.2788C22.6519 72.6548 23.1319 72.1688 23.7679 71.8208C24.4039 71.4728 25.1719 71.2988 26.0719 71.2988L31.9219 71.2988L31.9219 73.3328L26.3779 73.3328C25.4899 73.3328 24.8119 73.5548 24.3439 73.9988C23.8639 74.4428 23.6239 75.0488 23.6239 75.8168C23.6239 76.5848 23.8639 77.1968 24.3439 77.6528C24.8119 78.0968 25.4899 78.3188 26.3779 78.3188L31.9219 78.3188L31.9219 80.3708L22.0039 80.3708L22.0039 78.3188L23.1379 78.3188C22.7299 77.9828 22.4119 77.5568 22.1839 77.0408C21.9559 76.5128 21.8419 75.9548 21.8419 75.3668ZM32.0839 64.0013C32.0839 64.7813 31.9459 65.4833 31.6699 66.1073C31.3819 66.7193 30.9979 67.2053 30.5179 67.5653C30.0259 67.9253 29.4799 68.1173 28.8799 68.1413L28.8799 66.0173C29.2999 65.9813 29.6539 65.7833 29.9419 65.4233C30.2179 65.0513 30.3559 64.5893 30.3559 64.0373C30.3559 63.4613 30.2479 63.0173 30.0319 62.7053C29.8039 62.3813 29.5159 62.2193 29.1679 62.2193C28.7959 62.2193 28.5199 62.3993 28.3399 62.7593C28.1599 63.1073 27.9619 63.6653 27.7459 64.4333C27.5419 65.1773 27.3439 65.7833 27.1519 66.2513C26.9599 66.7193 26.6659 67.1273 26.2699 67.4753C25.8739 67.8113 25.3519 67.9793 24.7039 67.9793C24.1759 67.9793 23.6959 67.8233 23.2639 67.5113C22.8199 67.1993 22.4719 66.7553 22.2199 66.1793C21.9679 65.5913 21.8419 64.9193 21.8419 64.1633C21.8419 63.0353 22.1299 62.1293 22.7059 61.4453C23.2699 60.7493 24.0439 60.3773 25.0279 60.3293L25.0279 62.3813C24.5839 62.4173 24.2299 62.5973 23.9659 62.9213C23.7019 63.2453 23.5699 63.6833 23.5699 64.2353C23.5699 64.7753 23.6719 65.1893 23.8759 65.4773C24.0799 65.7653 24.3499 65.9093 24.6859 65.9093C24.9499 65.9093 25.1719 65.8133 25.3519 65.6213C25.5319 65.4293 25.6759 65.1953 25.7839 64.9193C25.8799 64.6433 26.0059 64.2353 26.1619 63.6953C26.3539 62.9753 26.5519 62.3873 26.7559 61.9313C26.9479 61.4633 27.2359 61.0613 27.6199 60.7253C28.0039 60.3893 28.5139 60.2153 29.1499 60.2033C29.7139 60.2033 30.2179 60.3593 30.6619 60.6713C31.1059 60.9833 31.4539 61.4273 31.7059 62.0033C31.9579 62.5673 32.0839 63.2333 32.0839 64.0013ZM22.0039 43.5861L31.9219 46.6641L31.9219 48.8241L24.5959 50.8221L31.9219 52.8201L31.9219 54.9801L22.0039 58.0761L22.0039 55.9881L29.9779 53.9181L22.0039 51.8121L22.0039 49.6701L29.9419 47.6541L22.0039 45.6021L22.0039 43.5861ZM26.7199 31.8826C27.0919 31.8826 27.4279 31.9066 27.7279 31.9546L27.7279 39.5326C28.5199 39.4726 29.1559 39.1786 29.6359 38.6506C30.1159 38.1226 30.3559 37.4746 30.3559 36.7066C30.3559 35.6026 29.8939 34.8226 28.9699 34.3666L28.9699 32.1526C29.8819 32.4526 30.6319 32.9986 31.2199 33.7906C31.7959 34.5706 32.0839 35.5426 32.0839 36.7066C32.0839 37.6546 31.8739 38.5066 31.4539 39.2626C31.0219 40.0066 30.4219 40.5946 29.6539 41.0266C28.8739 41.4466 27.9739 41.6566 26.9539 41.6566C25.9339 41.6566 25.0399 41.4526 24.2719 41.0446C23.4919 40.6246 22.8919 40.0426 22.4719 39.2986C22.0519 38.5426 21.8419 37.6786 21.8419 36.7066C21.8419 35.7706 22.0459 34.9366 22.4539 34.2046C22.8619 33.4726 23.4379 32.9026 24.1819 32.4946C24.9139 32.0866 25.7599 31.8826 26.7199 31.8826ZM26.0719 34.0246C25.3159 34.0366 24.7099 34.3066 24.2539 34.8346C23.7979 35.3626 23.5699 36.0166 23.5699 36.7966C23.5699 37.5046 23.7979 38.1106 24.2539 38.6146C24.6979 39.1186 25.3039 39.4186 26.0719 39.5146L26.0719 34.0246ZM23.4439 26.7312C22.9399 26.4312 22.5499 26.0352 22.2739 25.5432C21.9859 25.0392 21.8419 24.4452 21.8419 23.7612L23.9659 23.7612L23.9659 24.2832C23.9659 25.0872 24.1699 25.6992 24.5779 26.1192C24.9859 26.5272 25.6939 26.7312 26.7019 26.7312L31.9219 26.7312L31.9219 28.7832L22.0039 28.7832L22.0039 26.7312L23.4439 26.7312Z" fill="white"/>
<defs>
<filter id="filter0_d" x="0" y="0" width="55.013" height="118" filterUnits="userSpaceOnUse" color-interpolation-filters="sRGB">
<feFlood flood-opacity="0" result="BackgroundImageFix"/>
<feColorMatrix in="SourceAlpha" type="matrix" values="0 0 0 0 0 0 0 0 0 0 0 0 0 0 0 0 0 0 127 0" result="hardAlpha"/>
<feOffset/>
<feGaussianBlur stdDeviation="4.5"/>
<feColorMatrix type="matrix" values="0 0 0 0 0.7875 0 0 0 0 0.7875 0 0 0 0 0.7875 0 0 0 0.25 0"/>
<feBlend mode="normal" in2="BackgroundImageFix" result="effect1_dropShadow"/>
<feBlend mode="normal" in="SourceGraphic" in2="effect1_dropShadow" result="shape"/>
</filter>
</defs>
</svg>
