<svg width="163" height="49" viewBox="0 0 163 49" fill="none" xmlns="http://www.w3.org/2000/svg">
<rect width="163" height="49" rx="24.5" fill="#F5F5F5"/>
<g filter="url(#filter0_di)">
<rect x="7" y="4" width="149" height="40" rx="20" fill="white"/>
</g>
<path d="M25.7 24C25.7 22.6267 26.0067 21.4 26.62 20.32C27.2467 19.2267 28.0933 18.38 29.16 17.78C30.24 17.1667 31.4467 16.86 32.78 16.86C34.34 16.86 35.7067 17.26 36.88 18.06C38.0533 18.86 38.8733 19.9667 39.34 21.38H36.12C35.8 20.7133 35.3467 20.2133 34.76 19.88C34.1867 19.5467 33.52 19.38 32.76 19.38C31.9467 19.38 31.22 19.5733 30.58 19.96C29.9533 20.3333 29.46 20.8667 29.1 21.56C28.7533 22.2533 28.58 23.0667 28.58 24C28.58 24.92 28.7533 25.7333 29.1 26.44C29.46 27.1333 29.9533 27.6733 30.58 28.06C31.22 28.4333 31.9467 28.62 32.76 28.62C33.52 28.62 34.1867 28.4533 34.76 28.12C35.3467 27.7733 35.8 27.2667 36.12 26.6H39.34C38.8733 28.0267 38.0533 29.14 36.88 29.94C35.72 30.7267 34.3533 31.12 32.78 31.12C31.4467 31.12 30.24 30.82 29.16 30.22C28.0933 29.6067 27.2467 28.76 26.62 27.68C26.0067 26.6 25.7 25.3733 25.7 24ZM46.6516 31.18C45.5849 31.18 44.6249 30.9467 43.7716 30.48C42.9182 30 42.2449 29.3267 41.7516 28.46C41.2716 27.5933 41.0316 26.5933 41.0316 25.46C41.0316 24.3267 41.2782 23.3267 41.7716 22.46C42.2782 21.5933 42.9649 20.9267 43.8316 20.46C44.6982 19.98 45.6649 19.74 46.7316 19.74C47.7982 19.74 48.7649 19.98 49.6316 20.46C50.4982 20.9267 51.1782 21.5933 51.6716 22.46C52.1782 23.3267 52.4316 24.3267 52.4316 25.46C52.4316 26.5933 52.1716 27.5933 51.6516 28.46C51.1449 29.3267 50.4516 30 49.5716 30.48C48.7049 30.9467 47.7316 31.18 46.6516 31.18ZM46.6516 28.74C47.1582 28.74 47.6316 28.62 48.0716 28.38C48.5249 28.1267 48.8849 27.7533 49.1516 27.26C49.4182 26.7667 49.5516 26.1667 49.5516 25.46C49.5516 24.4067 49.2716 23.6 48.7116 23.04C48.1649 22.4667 47.4916 22.18 46.6916 22.18C45.8916 22.18 45.2182 22.4667 44.6716 23.04C44.1382 23.6 43.8716 24.4067 43.8716 25.46C43.8716 26.5133 44.1316 27.3267 44.6516 27.9C45.1849 28.46 45.8516 28.74 46.6516 28.74ZM60.6255 19.76C61.9455 19.76 63.0121 20.18 63.8255 21.02C64.6388 21.8467 65.0455 23.0067 65.0455 24.5V31H62.2455V24.88C62.2455 24 62.0255 23.3267 61.5855 22.86C61.1455 22.38 60.5455 22.14 59.7855 22.14C59.0121 22.14 58.3988 22.38 57.9455 22.86C57.5055 23.3267 57.2855 24 57.2855 24.88V31H54.4855V19.92H57.2855V21.3C57.6588 20.82 58.1321 20.4467 58.7055 20.18C59.2921 19.9 59.9321 19.76 60.6255 19.76ZM70.9681 22.22V27.58C70.9681 27.9533 71.0548 28.2267 71.2281 28.4C71.4148 28.56 71.7215 28.64 72.1481 28.64H73.4481V31H71.6881C69.3281 31 68.1481 29.8533 68.1481 27.56V22.22H66.8281V19.92H68.1481V17.18H70.9681V19.92H73.4481V22.22H70.9681ZM74.742 25.42C74.742 24.3 74.962 23.3067 75.402 22.44C75.8554 21.5733 76.462 20.9067 77.222 20.44C77.9954 19.9733 78.8554 19.74 79.802 19.74C80.6287 19.74 81.3487 19.9067 81.962 20.24C82.5887 20.5733 83.0887 20.9933 83.462 21.5V19.92H86.282V31H83.462V29.38C83.102 29.9 82.602 30.3333 81.962 30.68C81.3354 31.0133 80.6087 31.18 79.782 31.18C78.8487 31.18 77.9954 30.94 77.222 30.46C76.462 29.98 75.8554 29.3067 75.402 28.44C74.962 27.56 74.742 26.5533 74.742 25.42ZM83.462 25.46C83.462 24.78 83.3287 24.2 83.062 23.72C82.7954 23.2267 82.4354 22.8533 81.982 22.6C81.5287 22.3333 81.042 22.2 80.522 22.2C80.002 22.2 79.522 22.3267 79.082 22.58C78.642 22.8333 78.282 23.2067 78.002 23.7C77.7354 24.18 77.602 24.7533 77.602 25.42C77.602 26.0867 77.7354 26.6733 78.002 27.18C78.282 27.6733 78.642 28.0533 79.082 28.32C79.5354 28.5867 80.0154 28.72 80.522 28.72C81.042 28.72 81.5287 28.5933 81.982 28.34C82.4354 28.0733 82.7954 27.7 83.062 27.22C83.3287 26.7267 83.462 26.14 83.462 25.46ZM88.2967 25.46C88.2967 24.3133 88.5301 23.3133 88.9967 22.46C89.4634 21.5933 90.1101 20.9267 90.9367 20.46C91.7634 19.98 92.7101 19.74 93.7767 19.74C95.1501 19.74 96.2834 20.0867 97.1767 20.78C98.0834 21.46 98.6901 22.42 98.9967 23.66H95.9767C95.8167 23.18 95.5434 22.8067 95.1567 22.54C94.7834 22.26 94.3167 22.12 93.7567 22.12C92.9567 22.12 92.3234 22.4133 91.8567 23C91.3901 23.5733 91.1567 24.3933 91.1567 25.46C91.1567 26.5133 91.3901 27.3333 91.8567 27.92C92.3234 28.4933 92.9567 28.78 93.7567 28.78C94.8901 28.78 95.6301 28.2733 95.9767 27.26H98.9967C98.6901 28.46 98.0834 29.4133 97.1767 30.12C96.2701 30.8267 95.1367 31.18 93.7767 31.18C92.7101 31.18 91.7634 30.9467 90.9367 30.48C90.1101 30 89.4634 29.3333 88.9967 28.48C88.5301 27.6133 88.2967 26.6067 88.2967 25.46ZM104.308 22.22V27.58C104.308 27.9533 104.395 28.2267 104.568 28.4C104.755 28.56 105.061 28.64 105.488 28.64H106.788V31H105.028C102.668 31 101.488 29.8533 101.488 27.56V22.22H100.168V19.92H101.488V17.18H104.308V19.92H106.788V22.22H104.308ZM124.028 19.92V31H121.208V29.6C120.848 30.08 120.374 30.46 119.788 30.74C119.214 31.0067 118.588 31.14 117.908 31.14C117.041 31.14 116.274 30.96 115.608 30.6C114.941 30.2267 114.414 29.6867 114.028 28.98C113.654 28.26 113.468 27.4067 113.468 26.42V19.92H116.268V26.02C116.268 26.9 116.488 27.58 116.928 28.06C117.368 28.5267 117.968 28.76 118.728 28.76C119.501 28.76 120.108 28.5267 120.548 28.06C120.988 27.58 121.208 26.9 121.208 26.02V19.92H124.028ZM131.03 31.18C130.123 31.18 129.31 31.02 128.59 30.7C127.87 30.3667 127.297 29.92 126.87 29.36C126.457 28.8 126.23 28.18 126.19 27.5H129.01C129.063 27.9267 129.27 28.28 129.63 28.56C130.003 28.84 130.463 28.98 131.01 28.98C131.543 28.98 131.957 28.8733 132.25 28.66C132.557 28.4467 132.71 28.1733 132.71 27.84C132.71 27.48 132.523 27.2133 132.15 27.04C131.79 26.8533 131.21 26.6533 130.41 26.44C129.583 26.24 128.903 26.0333 128.37 25.82C127.85 25.6067 127.397 25.28 127.01 24.84C126.637 24.4 126.45 23.8067 126.45 23.06C126.45 22.4467 126.623 21.8867 126.97 21.38C127.33 20.8733 127.837 20.4733 128.49 20.18C129.157 19.8867 129.937 19.74 130.83 19.74C132.15 19.74 133.203 20.0733 133.99 20.74C134.777 21.3933 135.21 22.28 135.29 23.4H132.61C132.57 22.96 132.383 22.6133 132.05 22.36C131.73 22.0933 131.297 21.96 130.75 21.96C130.243 21.96 129.85 22.0533 129.57 22.24C129.303 22.4267 129.17 22.6867 129.17 23.02C129.17 23.3933 129.357 23.68 129.73 23.88C130.103 24.0667 130.683 24.26 131.47 24.46C132.27 24.66 132.93 24.8667 133.45 25.08C133.97 25.2933 134.417 25.6267 134.79 26.08C135.177 26.52 135.377 27.1067 135.39 27.84C135.39 28.48 135.21 29.0533 134.85 29.56C134.503 30.0667 133.997 30.4667 133.33 30.76C132.677 31.04 131.91 31.18 131.03 31.18Z" fill="#5253ED"/>
<defs>
<filter id="filter0_di" x="3" y="1" width="157" height="48" filterUnits="userSpaceOnUse" color-interpolation-filters="sRGB">
<feFlood flood-opacity="0" result="BackgroundImageFix"/>
<feColorMatrix in="SourceAlpha" type="matrix" values="0 0 0 0 0 0 0 0 0 0 0 0 0 0 0 0 0 0 127 0" result="hardAlpha"/>
<feOffset dy="1"/>
<feGaussianBlur stdDeviation="2"/>
<feComposite in2="hardAlpha" operator="out"/>
<feColorMatrix type="matrix" values="0 0 0 0 0 0 0 0 0 0 0 0 0 0 0 0 0 0 0.18 0"/>
<feBlend mode="normal" in2="BackgroundImageFix" result="effect1_dropShadow"/>
<feBlend mode="normal" in="SourceGraphic" in2="effect1_dropShadow" result="shape"/>
<feColorMatrix in="SourceAlpha" type="matrix" values="0 0 0 0 0 0 0 0 0 0 0 0 0 0 0 0 0 0 127 0" result="hardAlpha"/>
<feOffset dy="1"/>
<feGaussianBlur stdDeviation="2"/>
<feComposite in2="hardAlpha" operator="arithmetic" k2="-1" k3="1"/>
<feColorMatrix type="matrix" values="0 0 0 0 0 0 0 0 0 0 0 0 0 0 0 0 0 0 0.18 0"/>
<feBlend mode="normal" in2="shape" result="effect2_innerShadow"/>
</filter>
</defs>
</svg>
