<svg width="22" height="22" viewBox="0 0 22 22" fill="none" xmlns="http://www.w3.org/2000/svg">
<path d="M16.1318 0.0113688C17.7142 -0.0875289 19.2746 0.461903 20.4504 1.53879C21.5273 2.71457 22.0767 4.27496 21.9888 5.86831V16.1317C22.0877 17.725 21.5273 19.2854 20.4614 20.4612C19.2856 21.5381 17.7142 22.0875 16.1318 21.9886H5.86836C4.27499 22.0875 2.71459 21.5381 1.5388 20.4612C0.461906 19.2854 -0.0875296 17.725 0.0113689 16.1317V5.86831C-0.0875296 4.27496 0.461906 2.71457 1.5388 1.53879C2.71459 0.461903 4.27499 -0.0875289 5.86836 0.0113688H16.1318ZM15.8461 5.03317C15.1648 4.35188 14.0659 4.35188 13.3846 5.03317L12.6484 5.7804C12.5385 5.89029 12.5385 6.07709 12.6484 6.18698C12.6484 6.18698 12.67 6.20841 12.7084 6.24658L12.9787 6.51539C13.135 6.67095 13.3302 6.86522 13.5261 7.06058L14.1906 7.72475C14.3293 7.86403 14.4212 7.95737 14.4286 7.96714C14.5494 8.099 14.6264 8.27482 14.6264 8.47262C14.6264 8.86821 14.3077 9.19787 13.9011 9.19787C13.7143 9.19787 13.5385 9.12094 13.4176 9.00007L11.5825 7.17596C11.4946 7.08805 11.3407 7.08805 11.2528 7.17596L6.01121 12.4175C5.64858 12.7802 5.4398 13.2637 5.42881 13.7801L5.36288 16.3844C5.36288 16.5273 5.40683 16.6591 5.50573 16.758C5.60463 16.8569 5.73649 16.9119 5.87934 16.9119H8.46169C8.98915 16.9119 9.49463 16.7031 9.87924 16.3295L17.2746 8.91216C17.945 8.23087 17.945 7.132 17.2746 6.4617L15.8461 5.03317Z" fill="#5352ED"/>
</svg>
