<svg width="74" height="30" viewBox="0 0 74 30" fill="none" xmlns="http://www.w3.org/2000/svg">
<g filter="url(#filter0_d)">
<path d="M39.8309 27.9208H30.5619L29.652 23.1081H19.1228L16.361 27.9208H6.53906L9.68981 22.9763L37.9726 20.0859L39.8309 27.9208Z" fill="#5352ED"/>
</g>
<path d="M35.597 10.3898L27.3086 11.2386L27.0096 9.66319L26.029 11.3672L16.6797 12.3252L24.1322 0.628906H33.2822L35.597 10.3898Z" fill="#5352ED"/>
<g filter="url(#filter1_i)">
<path d="M70.4594 16.7656C70.0897 18.1256 69.5496 19.402 68.8391 20.6044C67.3537 23.1153 65.2896 25.0701 62.6469 26.4621C60.0041 27.8574 57.0109 28.5519 53.6737 28.5519C50.8573 28.5519 48.3914 28.0342 46.2759 26.9958C44.1604 25.9574 42.5303 24.5042 41.3858 22.6363C40.8553 21.7682 40.4502 20.8455 40.1641 19.8617L49.9314 18.865C50.0953 19.1126 50.285 19.3441 50.4972 19.5595C51.4553 20.5337 52.7767 21.0191 54.4614 21.0191C55.9339 21.0191 57.2167 20.6365 58.3066 19.8746C59.0975 19.3248 59.7501 18.6336 60.2677 17.8073L70.4594 16.7656Z" fill="#5352ED"/>
</g>
<g filter="url(#filter2_i)">
<path d="M69.8846 6.88663L58.8249 8.01832H58.8217C58.0951 7.69682 57.2463 7.53607 56.2786 7.53607C54.8157 7.53607 53.5393 7.91223 52.4527 8.66776L40.9492 9.84447C41.2225 9.19182 41.5408 8.55845 41.9009 7.94759C43.3862 5.43986 45.4503 3.48511 48.093 2.08978C50.739 0.697665 53.729 0 57.0695 0C59.8826 0 62.3486 0.520838 64.4641 1.5593C66.5828 2.59776 68.2128 4.05096 69.3574 5.9189C69.5503 6.23397 69.7271 6.55548 69.8846 6.88663Z" fill="#5352ED"/>
</g>
<g filter="url(#filter3_ii)">
<path d="M36.693 20.4087L8.41016 23.299L15.3997 12.3261L24.749 11.368L21.669 16.7243H27.0735L26.0286 11.2394L34.317 10.3906L36.693 20.4087Z" fill="#5352ED"/>
</g>
<g filter="url(#filter4_dii)">
<path d="M51.1587 8.66797C51.1523 8.67118 51.1459 8.67761 51.1394 8.68083C50.0495 9.44279 49.2136 10.4684 48.6349 11.7544C48.0562 13.0436 47.7668 14.4518 47.7668 15.9758C47.7668 17.2489 48.0562 18.3163 48.6413 19.1876L38.874 20.1843C38.5429 19.0461 38.3789 17.8276 38.3789 16.5288C38.3789 14.1014 38.8033 11.8734 39.6553 9.84468L51.1587 8.66797Z" fill="#5352ED"/>
</g>
<g filter="url(#filter5_dii)">
<path d="M69.7813 12.3491C69.7813 14.0241 69.5787 15.6059 69.1736 17.0881L58.9819 18.1297C59.1845 17.8147 59.3645 17.4771 59.5253 17.1202C60.104 15.831 60.3933 14.426 60.3933 12.8989C60.3933 11.2688 59.9143 9.96673 58.953 8.99579C58.5447 8.58105 58.0753 8.25633 57.5352 8.01841L68.5949 6.88672C69.3858 8.51353 69.7813 10.3365 69.7813 12.3491Z" fill="#5352ED"/>
</g>
<defs>
<filter id="filter0_d" x="0.539062" y="14.0859" width="41.2918" height="15.8349" filterUnits="userSpaceOnUse" color-interpolation-filters="sRGB">
<feFlood flood-opacity="0" result="BackgroundImageFix"/>
<feColorMatrix in="SourceAlpha" type="matrix" values="0 0 0 0 0 0 0 0 0 0 0 0 0 0 0 0 0 0 127 0" result="hardAlpha"/>
<feOffset dx="-2" dy="-2"/>
<feGaussianBlur stdDeviation="2"/>
<feColorMatrix type="matrix" values="0 0 0 0 0 0 0 0 0 0 0 0 0 0 0 0 0 0 0.25 0"/>
<feBlend mode="normal" in2="BackgroundImageFix" result="effect1_dropShadow"/>
<feBlend mode="normal" in="SourceGraphic" in2="effect1_dropShadow" result="shape"/>
</filter>
<filter id="filter1_i" x="40.1641" y="16.7656" width="30.2954" height="15.7862" filterUnits="userSpaceOnUse" color-interpolation-filters="sRGB">
<feFlood flood-opacity="0" result="BackgroundImageFix"/>
<feBlend mode="normal" in="SourceGraphic" in2="BackgroundImageFix" result="shape"/>
<feColorMatrix in="SourceAlpha" type="matrix" values="0 0 0 0 0 0 0 0 0 0 0 0 0 0 0 0 0 0 127 0" result="hardAlpha"/>
<feOffset dy="4"/>
<feGaussianBlur stdDeviation="2"/>
<feComposite in2="hardAlpha" operator="arithmetic" k2="-1" k3="1"/>
<feColorMatrix type="matrix" values="0 0 0 0 0 0 0 0 0 0 0 0 0 0 0 0 0 0 0.25 0"/>
<feBlend mode="normal" in2="shape" result="effect1_innerShadow"/>
</filter>
<filter id="filter2_i" x="40.9492" y="-4" width="28.9354" height="13.8445" filterUnits="userSpaceOnUse" color-interpolation-filters="sRGB">
<feFlood flood-opacity="0" result="BackgroundImageFix"/>
<feBlend mode="normal" in="SourceGraphic" in2="BackgroundImageFix" result="shape"/>
<feColorMatrix in="SourceAlpha" type="matrix" values="0 0 0 0 0 0 0 0 0 0 0 0 0 0 0 0 0 0 127 0" result="hardAlpha"/>
<feOffset dy="-4"/>
<feGaussianBlur stdDeviation="2"/>
<feComposite in2="hardAlpha" operator="arithmetic" k2="-1" k3="1"/>
<feColorMatrix type="matrix" values="0 0 0 0 0 0 0 0 0 0 0 0 0 0 0 0 0 0 0.25 0"/>
<feBlend mode="normal" in2="shape" result="effect1_innerShadow"/>
</filter>
<filter id="filter3_ii" x="6.41016" y="8.39062" width="30.2828" height="18.9084" filterUnits="userSpaceOnUse" color-interpolation-filters="sRGB">
<feFlood flood-opacity="0" result="BackgroundImageFix"/>
<feBlend mode="normal" in="SourceGraphic" in2="BackgroundImageFix" result="shape"/>
<feColorMatrix in="SourceAlpha" type="matrix" values="0 0 0 0 0 0 0 0 0 0 0 0 0 0 0 0 0 0 127 0" result="hardAlpha"/>
<feOffset dy="4"/>
<feGaussianBlur stdDeviation="2"/>
<feComposite in2="hardAlpha" operator="arithmetic" k2="-1" k3="1"/>
<feColorMatrix type="matrix" values="0 0 0 0 0 0 0 0 0 0 0 0 0 0 0 0 0 0 0.25 0"/>
<feBlend mode="normal" in2="shape" result="effect1_innerShadow"/>
<feColorMatrix in="SourceAlpha" type="matrix" values="0 0 0 0 0 0 0 0 0 0 0 0 0 0 0 0 0 0 127 0" result="hardAlpha"/>
<feOffset dx="-2" dy="-2"/>
<feGaussianBlur stdDeviation="2"/>
<feComposite in2="hardAlpha" operator="arithmetic" k2="-1" k3="1"/>
<feColorMatrix type="matrix" values="0 0 0 0 0 0 0 0 0 0 0 0 0 0 0 0 0 0 0.25 0"/>
<feBlend mode="normal" in2="effect1_innerShadow" result="effect2_innerShadow"/>
</filter>
<filter id="filter4_dii" x="34.3789" y="4.66797" width="20.7798" height="23.5163" filterUnits="userSpaceOnUse" color-interpolation-filters="sRGB">
<feFlood flood-opacity="0" result="BackgroundImageFix"/>
<feColorMatrix in="SourceAlpha" type="matrix" values="0 0 0 0 0 0 0 0 0 0 0 0 0 0 0 0 0 0 127 0" result="hardAlpha"/>
<feOffset dy="4"/>
<feGaussianBlur stdDeviation="2"/>
<feColorMatrix type="matrix" values="0 0 0 0 0 0 0 0 0 0 0 0 0 0 0 0 0 0 0.25 0"/>
<feBlend mode="normal" in2="BackgroundImageFix" result="effect1_dropShadow"/>
<feBlend mode="normal" in="SourceGraphic" in2="effect1_dropShadow" result="shape"/>
<feColorMatrix in="SourceAlpha" type="matrix" values="0 0 0 0 0 0 0 0 0 0 0 0 0 0 0 0 0 0 127 0" result="hardAlpha"/>
<feOffset dy="-4"/>
<feGaussianBlur stdDeviation="2"/>
<feComposite in2="hardAlpha" operator="arithmetic" k2="-1" k3="1"/>
<feColorMatrix type="matrix" values="0 0 0 0 0.498039 0 0 0 0 0.494118 0 0 0 0 0.964706 0 0 0 0.15 0"/>
<feBlend mode="normal" in2="shape" result="effect2_innerShadow"/>
<feColorMatrix in="SourceAlpha" type="matrix" values="0 0 0 0 0 0 0 0 0 0 0 0 0 0 0 0 0 0 127 0" result="hardAlpha"/>
<feOffset dy="-4"/>
<feGaussianBlur stdDeviation="2"/>
<feComposite in2="hardAlpha" operator="arithmetic" k2="-1" k3="1"/>
<feColorMatrix type="matrix" values="0 0 0 0 0.498039 0 0 0 0 0.494118 0 0 0 0 0.964706 0 0 0 0.15 0"/>
<feBlend mode="normal" in2="effect2_innerShadow" result="effect3_innerShadow"/>
</filter>
<filter id="filter5_dii" x="53.5352" y="2.88672" width="20.2461" height="23.243" filterUnits="userSpaceOnUse" color-interpolation-filters="sRGB">
<feFlood flood-opacity="0" result="BackgroundImageFix"/>
<feColorMatrix in="SourceAlpha" type="matrix" values="0 0 0 0 0 0 0 0 0 0 0 0 0 0 0 0 0 0 127 0" result="hardAlpha"/>
<feOffset dy="4"/>
<feGaussianBlur stdDeviation="2"/>
<feColorMatrix type="matrix" values="0 0 0 0 0 0 0 0 0 0 0 0 0 0 0 0 0 0 0.25 0"/>
<feBlend mode="normal" in2="BackgroundImageFix" result="effect1_dropShadow"/>
<feBlend mode="normal" in="SourceGraphic" in2="effect1_dropShadow" result="shape"/>
<feColorMatrix in="SourceAlpha" type="matrix" values="0 0 0 0 0 0 0 0 0 0 0 0 0 0 0 0 0 0 127 0" result="hardAlpha"/>
<feOffset dy="-4"/>
<feGaussianBlur stdDeviation="2"/>
<feComposite in2="hardAlpha" operator="arithmetic" k2="-1" k3="1"/>
<feColorMatrix type="matrix" values="0 0 0 0 0.498039 0 0 0 0 0.494118 0 0 0 0 0.964706 0 0 0 0.15 0"/>
<feBlend mode="normal" in2="shape" result="effect2_innerShadow"/>
<feColorMatrix in="SourceAlpha" type="matrix" values="0 0 0 0 0 0 0 0 0 0 0 0 0 0 0 0 0 0 127 0" result="hardAlpha"/>
<feOffset dy="-4"/>
<feGaussianBlur stdDeviation="2"/>
<feComposite in2="hardAlpha" operator="arithmetic" k2="-1" k3="1"/>
<feColorMatrix type="matrix" values="0 0 0 0 0.498039 0 0 0 0 0.494118 0 0 0 0 0.964706 0 0 0 0.15 0"/>
<feBlend mode="normal" in2="effect2_innerShadow" result="effect3_innerShadow"/>
</filter>
</defs>
</svg>
