<svg width="52" height="52" viewBox="0 0 52 52" fill="none" xmlns="http://www.w3.org/2000/svg">
<path d="M19.4956 0.908908C19.8128 1.29431 20.0071 1.76598 20.0535 2.26295C20.0998 2.75993 19.996 3.25939 19.7556 3.69679C17.8771 7.14581 16.896 11.0119 16.9027 14.9393C16.9027 28.0046 27.5539 38.5843 40.6809 38.5843C42.3933 38.5843 44.0602 38.4055 45.6621 38.0644C46.1531 37.958 46.6646 37.9987 47.1327 38.1813C47.6008 38.3639 48.0047 38.6804 48.294 39.0911C48.5994 39.5183 48.7551 40.0343 48.7369 40.5591C48.7186 41.0838 48.5275 41.5878 48.1932 41.9927C45.6448 45.1232 42.4298 47.6455 38.7828 49.3757C35.1358 51.1059 31.1486 52.0004 27.1119 51.994C12.1328 51.994 0 39.9262 0 25.0575C0 13.867 6.86897 4.26866 16.6493 0.200566C17.1365 -0.00533475 17.6773 -0.0475949 18.1906 0.0801336C18.7038 0.207862 19.1618 0.498682 19.4956 0.908908Z" fill="white"/>
<path d="M35.081 10.2317C35.1276 10.091 35.2174 9.9685 35.3375 9.88172C35.4577 9.79493 35.6022 9.74822 35.7504 9.74822C35.8986 9.74822 36.0431 9.79493 36.1632 9.88172C36.2834 9.9685 36.3731 10.091 36.4197 10.2317L37.6772 14.0073C38.2393 15.6904 39.5585 17.0097 41.2417 17.5718L45.0173 18.8292C45.158 18.8758 45.2805 18.9656 45.3673 19.0858C45.4541 19.2059 45.5008 19.3504 45.5008 19.4986C45.5008 19.6468 45.4541 19.7913 45.3673 19.9114C45.2805 20.0316 45.158 20.1214 45.0173 20.1679L41.2417 21.4254C40.4116 21.702 39.6573 22.1681 39.0386 22.7868C38.4199 23.4055 37.9538 24.1598 37.6772 24.9899L36.4197 28.7655C36.3731 28.9062 36.2834 29.0287 36.1632 29.1155C36.0431 29.2023 35.8986 29.249 35.7504 29.249C35.6022 29.249 35.4577 29.2023 35.3375 29.1155C35.2174 29.0287 35.1276 28.9062 35.081 28.7655L33.8236 24.9899C33.547 24.1598 33.0809 23.4055 32.4622 22.7868C31.8435 22.1681 31.0892 21.702 30.2591 21.4254L26.4835 20.1679C26.3427 20.1214 26.2203 20.0316 26.1335 19.9114C26.0467 19.7913 26 19.6468 26 19.4986C26 19.3504 26.0467 19.2059 26.1335 19.0858C26.2203 18.9656 26.3427 18.8758 26.4835 18.8292L30.2591 17.5718C31.0892 17.2952 31.8435 16.8291 32.4622 16.2104C33.0809 15.5917 33.547 14.8374 33.8236 14.0073L35.081 10.2317ZM45.0531 0.324625C45.0851 0.232107 45.1452 0.151881 45.225 0.0951018C45.3048 0.0383229 45.4003 0.0078125 45.4982 0.0078125C45.5961 0.0078125 45.6916 0.0383229 45.7714 0.0951018C45.8512 0.151881 45.9113 0.232107 45.9434 0.324625L46.7817 2.83956C47.1553 3.96381 48.0359 4.84437 49.1601 5.21803L51.6751 6.05635C51.7676 6.08842 51.8478 6.14853 51.9046 6.22831C51.9614 6.30809 51.9919 6.40358 51.9919 6.5015C51.9919 6.59942 51.9614 6.69491 51.9046 6.77469C51.8478 6.85447 51.7676 6.91457 51.6751 6.94665L49.1601 7.78496C48.6061 7.96927 48.1027 8.2802 47.6898 8.69308C47.2769 9.10595 46.966 9.60939 46.7817 10.1634L45.9434 12.6784C45.9113 12.7709 45.8512 12.8511 45.7714 12.9079C45.6916 12.9647 45.5961 12.9952 45.4982 12.9952C45.4003 12.9952 45.3048 12.9647 45.225 12.9079C45.1452 12.8511 45.0851 12.7709 45.0531 12.6784L44.2147 10.1634C44.0304 9.60939 43.7195 9.10595 43.3066 8.69308C42.8938 8.2802 42.3903 7.96927 41.8363 7.78496L39.3213 6.94665C39.2288 6.91457 39.1486 6.85447 39.0918 6.77469C39.035 6.69491 39.0045 6.59942 39.0045 6.5015C39.0045 6.40358 39.035 6.30809 39.0918 6.22831C39.1486 6.14853 39.2288 6.08842 39.3213 6.05635L41.8363 5.21803C42.9605 4.84437 43.8411 3.96381 44.2147 2.83956L45.0531 0.327875V0.324625Z" fill="white"/>
</svg>
