<svg width="56" height="122" viewBox="0 0 56 122" fill="none" xmlns="http://www.w3.org/2000/svg">
<g filter="url(#filter0_d)">
<path d="M9 21C9 14.3726 14.3726 9 21 9H47V113H21C14.3726 113 9 107.627 9 101V21Z" fill="#5352ED"/>
</g>
<path d="M26.996 106.096C26 106.096 25.118 105.892 24.35 105.484C23.582 105.064 22.988 104.5 22.568 103.792C22.136 103.072 21.92 102.274 21.92 101.398C21.92 100.63 22.076 99.9517 22.388 99.3637C22.7 98.7637 23.078 98.3017 23.522 97.9777L22.082 97.9777L22.082 95.9077L36.716 95.9077L36.716 97.9777L30.56 97.9777C31.004 98.3017 31.382 98.7697 31.694 99.3817C32.006 99.9937 32.162 100.69 32.162 101.47C32.162 102.322 31.946 103.102 31.514 103.81C31.07 104.506 30.458 105.064 29.678 105.484C28.886 105.892 27.992 106.096 26.996 106.096ZM27.032 97.9777C26.348 97.9777 25.754 98.1217 25.25 98.4097C24.746 98.6857 24.362 99.0517 24.098 99.5077C23.834 99.9637 23.702 100.456 23.702 100.984C23.702 101.512 23.834 102.004 24.098 102.46C24.35 102.916 24.728 103.288 25.232 103.576C25.724 103.852 26.312 103.99 26.996 103.99C27.68 103.99 28.28 103.852 28.796 103.576C29.312 103.288 29.708 102.916 29.984 102.46C30.248 101.992 30.38 101.5 30.38 100.984C30.38 100.456 30.248 99.9637 29.984 99.5077C29.72 99.0517 29.336 98.6857 28.832 98.4097C28.316 98.1217 27.716 97.9777 27.032 97.9777ZM22.082 83.1505L32 83.1505L32 85.2025L30.83 85.2025C31.238 85.5265 31.562 85.9525 31.802 86.4805C32.03 86.9965 32.144 87.5485 32.144 88.1365C32.144 88.9165 31.982 89.6185 31.658 90.2425C31.334 90.8545 30.854 91.3405 30.218 91.7005C29.582 92.0485 28.814 92.2225 27.914 92.2225L22.082 92.2225L22.082 90.1885L27.608 90.1885C28.496 90.1885 29.18 89.9665 29.66 89.5225C30.128 89.0785 30.362 88.4725 30.362 87.7045C30.362 86.9365 30.128 86.3305 29.66 85.8865C29.18 85.4305 28.496 85.2025 27.608 85.2025L22.082 85.2025L22.082 83.1505ZM26.798 70.273C27.17 70.273 27.506 70.297 27.806 70.345L27.806 77.923C28.598 77.863 29.234 77.569 29.714 77.041C30.194 76.513 30.434 75.865 30.434 75.097C30.434 73.993 29.972 73.213 29.048 72.757L29.048 70.543C29.96 70.843 30.71 71.389 31.298 72.181C31.874 72.961 32.162 73.933 32.162 75.097C32.162 76.045 31.952 76.897 31.532 77.653C31.1 78.397 30.5 78.985 29.732 79.417C28.952 79.837 28.052 80.047 27.032 80.047C26.012 80.047 25.118 79.843 24.35 79.435C23.57 79.015 22.97 78.433 22.55 77.689C22.13 76.933 21.92 76.069 21.92 75.097C21.92 74.161 22.124 73.327 22.532 72.595C22.94 71.863 23.516 71.293 24.26 70.885C24.992 70.477 25.838 70.273 26.798 70.273ZM26.15 72.415C25.394 72.427 24.788 72.697 24.332 73.225C23.876 73.753 23.648 74.407 23.648 75.187C23.648 75.895 23.876 76.501 24.332 77.005C24.776 77.509 25.382 77.809 26.15 77.905L26.15 72.415ZM32.162 63.5737C32.162 64.3537 32.024 65.0557 31.748 65.6797C31.46 66.2917 31.076 66.7777 30.596 67.1377C30.104 67.4977 29.558 67.6897 28.958 67.7137L28.958 65.5897C29.378 65.5537 29.732 65.3557 30.02 64.9957C30.296 64.6237 30.434 64.1617 30.434 63.6097C30.434 63.0337 30.326 62.5897 30.11 62.2777C29.882 61.9537 29.594 61.7917 29.246 61.7917C28.874 61.7917 28.598 61.9717 28.418 62.3317C28.238 62.6797 28.04 63.2377 27.824 64.0057C27.62 64.7497 27.422 65.3557 27.23 65.8237C27.038 66.2917 26.744 66.6997 26.348 67.0477C25.952 67.3837 25.43 67.5517 24.782 67.5517C24.254 67.5517 23.774 67.3957 23.342 67.0837C22.898 66.7717 22.55 66.3277 22.298 65.7517C22.046 65.1637 21.92 64.4917 21.92 63.7357C21.92 62.6077 22.208 61.7017 22.784 61.0177C23.348 60.3217 24.122 59.9497 25.106 59.9017L25.106 61.9537C24.662 61.9897 24.308 62.1697 24.044 62.4937C23.78 62.8177 23.648 63.2557 23.648 63.8077C23.648 64.3477 23.75 64.7617 23.954 65.0497C24.158 65.3377 24.428 65.4817 24.764 65.4817C25.028 65.4817 25.25 65.3857 25.43 65.1937C25.61 65.0017 25.754 64.7677 25.862 64.4917C25.958 64.2157 26.084 63.8077 26.24 63.2677C26.432 62.5477 26.63 61.9597 26.834 61.5037C27.026 61.0357 27.314 60.6337 27.698 60.2977C28.082 59.9617 28.592 59.7877 29.228 59.7757C29.792 59.7757 30.296 59.9317 30.74 60.2437C31.184 60.5557 31.532 60.9997 31.784 61.5757C32.036 62.1397 32.162 62.8057 32.162 63.5737ZM23.756 54.0844L29.246 54.0844C29.618 54.0844 29.888 54.0004 30.056 53.8324C30.212 53.6524 30.29 53.3524 30.29 52.9324L30.29 51.6724L32 51.6724L32 53.2924C32 54.2164 31.784 54.9244 31.352 55.4164C30.92 55.9084 30.218 56.1544 29.246 56.1544L23.756 56.1544L23.756 57.3244L22.082 57.3244L22.082 56.1544L19.616 56.1544L19.616 54.0844L22.082 54.0844L22.082 51.6724L23.756 51.6724L23.756 54.0844ZM20.768 47.6572C20.768 48.0292 20.642 48.3412 20.39 48.5932C20.138 48.8452 19.826 48.9712 19.454 48.9712C19.082 48.9712 18.77 48.8452 18.518 48.5932C18.266 48.3412 18.14 48.0292 18.14 47.6572C18.14 47.2972 18.266 46.9912 18.518 46.7392C18.77 46.4872 19.082 46.3612 19.454 46.3612C19.826 46.3612 20.138 46.4872 20.39 46.7392C20.642 46.9912 20.768 47.2972 20.768 47.6572ZM22.082 46.6492L32 46.6492L32 48.7012L22.082 48.7012L22.082 46.6492ZM32.162 38.5731C32.162 39.5091 31.952 40.3551 31.532 41.1111C31.1 41.8671 30.5 42.4611 29.732 42.8931C28.952 43.3251 28.052 43.5411 27.032 43.5411C26.024 43.5411 25.13 43.3191 24.35 42.8751C23.57 42.4311 22.97 41.8251 22.55 41.0571C22.13 40.2891 21.92 39.4311 21.92 38.4831C21.92 37.5351 22.13 36.6771 22.55 35.9091C22.97 35.1411 23.57 34.5351 24.35 34.0911C25.13 33.6471 26.024 33.4251 27.032 33.4251C28.04 33.4251 28.934 33.6531 29.714 34.1091C30.494 34.5651 31.1 35.1891 31.532 35.9811C31.952 36.7611 32.162 37.6251 32.162 38.5731ZM30.38 38.5731C30.38 38.0451 30.254 37.5531 30.002 37.0971C29.75 36.6291 29.372 36.2511 28.868 35.9631C28.364 35.6751 27.752 35.5311 27.032 35.5311C26.312 35.5311 25.706 35.6691 25.214 35.9451C24.71 36.2211 24.332 36.5871 24.08 37.0431C23.828 37.4991 23.702 37.9911 23.702 38.5191C23.702 39.0471 23.828 39.5391 24.08 39.9951C24.332 40.4391 24.71 40.7931 25.214 41.0571C25.706 41.3211 26.312 41.4531 27.032 41.4531C28.1 41.4531 28.928 41.1831 29.516 40.6431C30.092 40.0911 30.38 39.4011 30.38 38.5731ZM21.92 25.3126C21.92 24.5326 22.082 23.8366 22.406 23.2246C22.73 22.6006 23.21 22.1146 23.846 21.7666C24.482 21.4186 25.25 21.2446 26.15 21.2446L32 21.2446L32 23.2786L26.456 23.2786C25.568 23.2786 24.89 23.5006 24.422 23.9446C23.942 24.3886 23.702 24.9946 23.702 25.7626C23.702 26.5306 23.942 27.1426 24.422 27.5986C24.89 28.0426 25.568 28.2646 26.456 28.2646L32 28.2646L32 30.3166L22.082 30.3166L22.082 28.2646L23.216 28.2646C22.808 27.9286 22.49 27.5026 22.262 26.9866C22.034 26.4586 21.92 25.9006 21.92 25.3126Z" fill="white"/>
<defs>
<filter id="filter0_d" x="0" y="0" width="56" height="122" filterUnits="userSpaceOnUse" color-interpolation-filters="sRGB">
<feFlood flood-opacity="0" result="BackgroundImageFix"/>
<feColorMatrix in="SourceAlpha" type="matrix" values="0 0 0 0 0 0 0 0 0 0 0 0 0 0 0 0 0 0 127 0" result="hardAlpha"/>
<feOffset/>
<feGaussianBlur stdDeviation="4.5"/>
<feColorMatrix type="matrix" values="0 0 0 0 0.7875 0 0 0 0 0.7875 0 0 0 0 0.7875 0 0 0 0.25 0"/>
<feBlend mode="normal" in2="BackgroundImageFix" result="effect1_dropShadow"/>
<feBlend mode="normal" in="SourceGraphic" in2="effect1_dropShadow" result="shape"/>
</filter>
</defs>
</svg>
