<svg width="192" height="182" viewBox="0 0 192 182" fill="none" xmlns="http://www.w3.org/2000/svg">
<path d="M102.926 12.2287L118.224 49.0594C121.485 56.9099 128.891 62.2525 137.37 62.8696L177.251 65.772C183.982 66.2619 186.692 74.6986 181.505 79.0165L151.337 104.129C144.703 109.651 141.813 118.483 143.899 126.859L153.369 164.882C154.989 171.387 147.913 176.588 142.189 173.099L107.709 152.087C100.518 147.705 91.4821 147.705 84.2914 152.087L49.8115 173.099C44.0871 176.588 37.0109 171.387 38.6309 164.882L48.1007 126.859C50.1869 118.483 47.2969 109.651 40.6625 104.129L10.4951 79.0165C5.30802 74.6986 8.01772 66.2619 14.749 65.772L54.6304 62.8696C63.1087 62.2525 70.5154 56.9099 73.7761 49.0594L89.0737 12.2287C91.634 6.06447 100.366 6.06446 102.926 12.2287Z" stroke="#FACB5D" stroke-width="15"/>
</svg>
