<svg width="52" height="52" viewBox="0 0 52 52" fill="none" xmlns="http://www.w3.org/2000/svg">
<path d="M26 39C29.4478 39 32.7544 37.6304 35.1924 35.1924C37.6304 32.7544 39 29.4478 39 26C39 22.5522 37.6304 19.2456 35.1924 16.8076C32.7544 14.3696 29.4478 13 26 13C22.5522 13 19.2456 14.3696 16.8076 16.8076C14.3696 19.2456 13 22.5522 13 26C13 29.4478 14.3696 32.7544 16.8076 35.1924C19.2456 37.6304 22.5522 39 26 39ZM26 0C26.431 0 26.8443 0.171205 27.149 0.475951C27.4538 0.780698 27.625 1.19402 27.625 1.625V8.125C27.625 8.55598 27.4538 8.9693 27.149 9.27405C26.8443 9.57879 26.431 9.75 26 9.75C25.569 9.75 25.1557 9.57879 24.851 9.27405C24.5462 8.9693 24.375 8.55598 24.375 8.125V1.625C24.375 1.19402 24.5462 0.780698 24.851 0.475951C25.1557 0.171205 25.569 0 26 0ZM26 42.25C26.431 42.25 26.8443 42.4212 27.149 42.726C27.4538 43.0307 27.625 43.444 27.625 43.875V50.375C27.625 50.806 27.4538 51.2193 27.149 51.524C26.8443 51.8288 26.431 52 26 52C25.569 52 25.1557 51.8288 24.851 51.524C24.5462 51.2193 24.375 50.806 24.375 50.375V43.875C24.375 43.444 24.5462 43.0307 24.851 42.726C25.1557 42.4212 25.569 42.25 26 42.25ZM52 26C52 26.431 51.8288 26.8443 51.524 27.149C51.2193 27.4538 50.806 27.625 50.375 27.625H43.875C43.444 27.625 43.0307 27.4538 42.726 27.149C42.4212 26.8443 42.25 26.431 42.25 26C42.25 25.569 42.4212 25.1557 42.726 24.851C43.0307 24.5462 43.444 24.375 43.875 24.375H50.375C50.806 24.375 51.2193 24.5462 51.524 24.851C51.8288 25.1557 52 25.569 52 26ZM9.75 26C9.75 26.431 9.57879 26.8443 9.27405 27.149C8.9693 27.4538 8.55598 27.625 8.125 27.625H1.625C1.19402 27.625 0.780698 27.4538 0.475951 27.149C0.171205 26.8443 0 26.431 0 26C0 25.569 0.171205 25.1557 0.475951 24.851C0.780698 24.5462 1.19402 24.375 1.625 24.375H8.125C8.55598 24.375 8.9693 24.5462 9.27405 24.851C9.57879 25.1557 9.75 25.569 9.75 26ZM44.3853 7.61475C44.6899 7.91948 44.861 8.33273 44.861 8.76363C44.861 9.19452 44.6899 9.60777 44.3853 9.9125L39.7897 14.5113C39.6387 14.6621 39.4593 14.7818 39.262 14.8633C39.0647 14.9449 38.8532 14.9868 38.6397 14.9867C38.2085 14.9863 37.7951 14.8148 37.4904 14.5096C37.3395 14.3585 37.2199 14.1792 37.1383 13.9819C37.0567 13.7846 37.0148 13.5731 37.015 13.3596C37.0153 12.9284 37.1869 12.515 37.492 12.2102L42.0875 7.61475C42.3922 7.31011 42.8055 7.13897 43.2364 7.13897C43.6673 7.13897 44.0805 7.31011 44.3853 7.61475ZM14.508 37.492C14.8126 37.7967 14.9838 38.21 14.9838 38.6409C14.9838 39.0718 14.8126 39.485 14.508 39.7897L9.9125 44.3853C9.60602 44.6813 9.19554 44.845 8.76947 44.8413C8.3434 44.8376 7.93583 44.6667 7.63455 44.3655C7.33326 44.0642 7.16236 43.6566 7.15865 43.2305C7.15495 42.8045 7.31874 42.394 7.61475 42.0875L12.2102 37.492C12.515 37.1874 12.9282 37.0162 13.3591 37.0162C13.79 37.0162 14.2033 37.1874 14.508 37.492ZM44.3853 44.3853C44.0805 44.6899 43.6673 44.861 43.2364 44.861C42.8055 44.861 42.3922 44.6899 42.0875 44.3853L37.492 39.7897C37.196 39.4833 37.0322 39.0728 37.0359 38.6467C37.0396 38.2206 37.2105 37.8131 37.5118 37.5118C37.8131 37.2105 38.2206 37.0396 38.6467 37.0359C39.0728 37.0322 39.4833 37.196 39.7897 37.492L44.3853 42.0875C44.6899 42.3922 44.861 42.8055 44.861 43.2364C44.861 43.6673 44.6899 44.0805 44.3853 44.3853ZM14.508 14.5113C14.2033 14.8159 13.79 14.987 13.3591 14.987C12.9282 14.987 12.515 14.8159 12.2102 14.5113L7.61475 9.9125C7.45955 9.7626 7.33575 9.58329 7.25059 9.38503C7.16542 9.18678 7.12059 8.97354 7.11872 8.75778C7.11684 8.54201 7.15796 8.32803 7.23966 8.12832C7.32137 7.92862 7.44203 7.74718 7.59461 7.59461C7.74718 7.44203 7.92862 7.32137 8.12832 7.23966C8.32803 7.15796 8.54201 7.11684 8.75778 7.11872C8.97354 7.12059 9.18678 7.16542 9.38503 7.25059C9.58329 7.33575 9.7626 7.45955 9.9125 7.61475L14.508 12.2102C14.6593 12.3612 14.7794 12.5405 14.8613 12.7379C14.9432 12.9354 14.9854 13.147 14.9854 13.3608C14.9854 13.5745 14.9432 13.7861 14.8613 13.9836C14.7794 14.181 14.6593 14.3603 14.508 14.5113Z" fill="url(#paint0_radial)"/>
<defs>
<radialGradient id="paint0_radial" cx="0" cy="0" r="1" gradientUnits="userSpaceOnUse" gradientTransform="translate(26 26) rotate(90) scale(26)">
<stop stop-color="#FFEE53"/>
<stop offset="1" stop-color="#E36509" stop-opacity="0.79"/>
</radialGradient>
</defs>
</svg>
