<svg width="200" height="188" viewBox="0 0 200 188" fill="none" xmlns="http://www.w3.org/2000/svg">
<path d="M92.9775 29.3214L100 48.048L107.022 29.3214C109.381 23.0329 115.455 17.0476 124.333 12.8502C133.113 8.69936 143.829 6.71263 154.111 7.78858C164.34 8.85913 173.786 12.906 180.675 20.4383C187.518 27.9215 192.5 39.5707 192.5 57.1228C192.5 91.4955 174.756 122.355 153.508 144.915C142.933 156.143 131.69 165.092 121.785 171.182C111.508 177.501 103.782 180.058 100 180.058C96.2179 180.058 88.4917 177.501 78.2151 171.182C68.3101 165.092 57.0674 156.143 46.4922 144.915C25.2439 122.355 7.5 91.4955 7.5 57.1228C7.5 39.5707 12.482 27.9215 19.3254 20.4383C26.2137 12.906 35.6597 8.85913 45.8893 7.78858C56.1707 6.71263 66.8871 8.69936 75.6666 12.8502C84.5446 17.0476 90.6193 23.0329 92.9775 29.3214Z" stroke="#F95285" stroke-opacity="0.7" stroke-width="15"/>
</svg>
