<svg width="192" height="182" viewBox="0 0 192 182" fill="none" xmlns="http://www.w3.org/2000/svg">
<path d="M82.1557 10.1963C87.2861 -2.10546 104.714 -2.10546 109.844 10.1963L125.142 46.8787C127.321 52.1035 132.256 55.6565 137.902 56.0658L177.672 58.9483C191.151 59.9253 196.565 76.8311 186.161 85.4567L156.172 110.319C151.729 114.002 149.793 119.907 151.193 125.506L160.624 163.216C163.875 176.217 149.745 186.631 138.289 179.679L103.783 158.736C99.0001 155.833 92.9999 155.833 88.2174 158.736L53.7108 179.679C42.2549 186.631 28.1254 176.217 31.3764 163.216L40.8068 125.506C42.2068 119.907 40.271 114.002 35.8284 110.319L5.83939 85.4567C-4.56491 76.8311 0.849018 59.9253 14.3285 58.9483L54.0976 56.0658C59.7438 55.6565 64.6786 52.1035 66.8575 46.8787L82.1557 10.1963Z" fill="#FACB5D"/>
</svg>
